<svg xmlns="http://www.w3.org/2000/svg" xmlns:xlink="http://www.w3.org/1999/xlink" id="Layer_1" data-name="Layer 1" viewBox="0 0 975.24 214.79"><defs><style>.cls-1,.cls-3{fill:#fff;stroke:#fff;}.cls-1,.cls-2,.cls-3{stroke-miterlimit:10;}.cls-1,.cls-2{stroke-width:5px;}.cls-2{fill:url(#linear-gradient);stroke:url(#linear-gradient-2);}</style><linearGradient id="linear-gradient" x1="387.4" y1="120.75" x2="387.6" y2="120.75" gradientTransform="matrix(1, 0, 0, -1, -51.68, 274.1)" gradientUnits="userSpaceOnUse"><stop offset="0" stop-color="#6f61ef"></stop><stop offset="1" stop-color="#504ca8"></stop></linearGradient><linearGradient id="linear-gradient-2" x1="383.9" y1="124.02" x2="390.7" y2="124.02" xlink:href="#linear-gradient"></linearGradient></defs><title>codesolvix_white</title><path class="cls-1" d="M332.3,249.6a53.37,53.37,0,0,1-20.2-3.7,46.87,46.87,0,0,1-16-10.3A48.45,48.45,0,0,1,285.5,220a52.45,52.45,0,0,1,0-39.2,45.73,45.73,0,0,1,10.7-15.6,48.28,48.28,0,0,1,16.1-10.3,57.37,57.37,0,0,1,40-.2,39.74,39.74,0,0,1,15.6,10.6h0a10.14,10.14,0,0,1-12.8,1.2,32,32,0,0,0-6.9-3.5,45.53,45.53,0,0,0-31.7.3,39.34,39.34,0,0,0-13,8.4,38.08,38.08,0,0,0-8.6,12.7,41.48,41.48,0,0,0-3.1,16,40.05,40.05,0,0,0,3.1,16,41.31,41.31,0,0,0,8.6,12.7,37.83,37.83,0,0,0,13,8.4,43.22,43.22,0,0,0,16.2,3,40.74,40.74,0,0,0,15.5-2.8,32.45,32.45,0,0,0,6.9-3.6,10.14,10.14,0,0,1,12.8,1.2h0A40.7,40.7,0,0,1,352.3,246a54.51,54.51,0,0,1-19.9,3.6Z" transform="translate(-51.68 -75.9)"></path><polygon class="cls-1" points="107.11 113.7 69.42 93.4 54.52 101.8 66.22 108.1 107.22 130.3 107.22 130.3 119.61 123.6 122.61 122 109.61 115.1 109.61 115.1 107.11 113.7"></polygon><path class="cls-1" d="M229.6,204.3H189.7l-30.1,19.3-9.4,5.4a6,6,0,0,1-5.8,0s-26.5-16-34.1-21.4a8.75,8.75,0,0,0-5.2-1.7H93.9c0,.7,2.2,11.8,7.1,14.5q19.65,11.25,39.2,22.6c4.9,2.9,9.4,2.8,14.3,0q20-11.7,40.1-23.2a6.31,6.31,0,0,1,2.5-.9h27.4a10.34,10.34,0,0,1,1.2.3c0,7.5-3.1,13.3-9.4,17-17.6,10.3-35.3,20.6-53.1,30.7a76.18,76.18,0,0,1-13,5.9c-4.1,1.3-8.3.2-12-1.9q-25.5-14.55-51-29.3c-3.2-1.8-6.4-3.6-9.5-5.6-5.7-3.7-8.9-9-8.9-15.9V151.9c0-8,3.6-13.9,10.5-17.8,18.3-10.5,36.5-21.1,54.7-31.6,3.9-2.3,7.8-4.4,12.5-4.5a21.06,21.06,0,0,1,11,2.9c17.8,10.3,35.7,20.6,53.5,30.9,4.2,2.4,8.6,4.5,11.3,8.9a18.94,18.94,0,0,1,3.1,11.6H198.6A9.7,9.7,0,0,1,194,151c-12.6-7.1-25.2-14.4-37.8-21.5-2.6-1.5-5.4-3-8.3-3.4a11.77,11.77,0,0,0-7,1.7c-13.6,7.7-27.1,15.6-40.7,23.4-4.4,2.5-6.4,6.2-6.4,11.4v5.1h0a3.49,3.49,0,0,0,1.7,3l15.6-9.3,1.3-.8h0l21.7-13,.6-.4h0l9.7-5.6a6,6,0,0,1,5.8,0s22.5,13.8,32,20.7h0a19.59,19.59,0,0,1,3.9,3.2L188,167h42.9c6.6,0,10-3,9.5-9.2-.1-1.9,0-3.9,0-5.8,0-13.3-5.9-23.4-17.2-30.1-24.9-14.6-50-29.1-75.2-43.2-10.3,4.7-20,10.5-29.8,16.2-15.4,8.9-30.8,17.7-46.1,26.7-11.5,6.7-17.7,16.7-17.8,30.1-.1,22.8-.2,45.7,0,68.5.1,12.9,6.1,22.8,17.2,29.3,19.4,11.4,38.8,22.5,58.3,33.7,11.7,6.7,23.5,6.6,35.2,0,19.4-11.1,38.7-22.4,58.1-33.5a34.78,34.78,0,0,0,15-17.1c2.3-5.5,2.5-11.3,2.4-17.1-.1-9-1.9-10.9-10.8-10.9Z" transform="translate(-51.68 -75.9)"></path><polygon class="cls-2" points="335.92 153.1 335.71 153.5 335.92 153.6 335.92 153.1"></polygon><path class="cls-1" d="M414.1,249.5a37.41,37.41,0,0,1-18.9-4.8A35.31,35.31,0,0,1,382,231.6a40.8,40.8,0,0,1,0-38.4,34.78,34.78,0,0,1,13.1-13,37.85,37.85,0,0,1,18.9-4.7,39.28,39.28,0,0,1,19.2,4.7,33.42,33.42,0,0,1,13.1,13,40.8,40.8,0,0,1,0,38.4,33.92,33.92,0,0,1-13.2,13.1,37.89,37.89,0,0,1-19.1,4.8Zm0-8.8a28,28,0,0,0,14-3.5,25,25,0,0,0,9.6-10,29.85,29.85,0,0,0,3.5-14.9,30.66,30.66,0,0,0-3.5-14.9A25.69,25.69,0,0,0,414.3,184a27.48,27.48,0,0,0-13.8,3.5,25.65,25.65,0,0,0-9.7,9.9,32.63,32.63,0,0,0,0,29.8,25.91,25.91,0,0,0,9.7,10,26.38,26.38,0,0,0,13.7,3.5Z" transform="translate(-51.68 -75.9)"></path><path class="cls-3" d="M500.1,249.5a37.25,37.25,0,0,1-18.6-4.7,33.17,33.17,0,0,1-12.9-13.1,42.18,42.18,0,0,1,0-38.7,33.32,33.32,0,0,1,12.9-12.9,37.19,37.19,0,0,1,18.6-4.6,32.18,32.18,0,0,1,17.1,4.3,31.45,31.45,0,0,1,12,12.5q4.5,8.25,4.5,20.1c0,7.9-1.5,14.5-4.4,20.1a31.34,31.34,0,0,1-12,12.7,33.85,33.85,0,0,1-17.2,4.4Zm.7-8.8a27.86,27.86,0,0,0,13.9-3.5,25.91,25.91,0,0,0,9.7-10,29.85,29.85,0,0,0,3.5-14.9,30.66,30.66,0,0,0-3.5-14.9,26.35,26.35,0,0,0-9.7-9.9,29,29,0,0,0-27.6,0,25.65,25.65,0,0,0-9.7,9.9,32.63,32.63,0,0,0,0,29.8,25.91,25.91,0,0,0,9.7,10,26.38,26.38,0,0,0,13.7,3.5Zm27.4,3.3V226.9l1-14.7-1.4-14.7V154.9a8.75,8.75,0,0,1,8.8-8.8h1V248.7H533a4.8,4.8,0,0,1-4.8-4.8Z" transform="translate(-51.68 -75.9)"></path><path class="cls-3" d="M761.9,249.5a37.41,37.41,0,0,1-18.9-4.8,35.31,35.31,0,0,1-13.2-13.1,40.8,40.8,0,0,1,0-38.4,34.78,34.78,0,0,1,13.1-13,37.85,37.85,0,0,1,18.9-4.7,39.28,39.28,0,0,1,19.2,4.7,33.42,33.42,0,0,1,13.1,13,40.8,40.8,0,0,1,0,38.4,33.92,33.92,0,0,1-13.2,13.1,37.89,37.89,0,0,1-19.1,4.8Zm0-8.8a28,28,0,0,0,14-3.5,25,25,0,0,0,9.6-10,29.85,29.85,0,0,0,3.5-14.9,30.66,30.66,0,0,0-3.5-14.9A25.69,25.69,0,0,0,762.1,184a27.48,27.48,0,0,0-13.8,3.5,25.65,25.65,0,0,0-9.7,9.9,32.63,32.63,0,0,0,0,29.8,25.91,25.91,0,0,0,9.7,10,26.38,26.38,0,0,0,13.7,3.5Z" transform="translate(-51.68 -75.9)"></path><path class="cls-3" d="M819,248.8V153a6.81,6.81,0,0,1,6.8-6.8h3v93.4a9.18,9.18,0,0,1-9.2,9.2Z" transform="translate(-51.68 -75.9)"></path><path class="cls-3" d="M874,246.9l-31.4-70.7h5.6a7.35,7.35,0,0,1,6.6,4.3l27.7,63.1h-4.8l28.1-63.1a7.35,7.35,0,0,1,6.6-4.3h5L885,248.8h-8a3,3,0,0,1-2.9-1.9Z" transform="translate(-51.68 -75.9)"></path><path class="cls-3" d="M957.3,248.8,988,209v4.8c-.1,0-29.3-37.6-29.3-37.6h6.8a8.92,8.92,0,0,1,6.9,3.4l21.3,27.7h-4.1c0-.1,21.9-28.5,21.9-28.5a6.54,6.54,0,0,1,5.3-2.6h7.5l-29.5,38v-5.3c.1,0,31.1,39.8,31.1,39.8h-7.4a7.72,7.72,0,0,1-6.1-3l-23-30.2,3.9.6-23.8,31.2a3.84,3.84,0,0,1-3,1.5Z" transform="translate(-51.68 -75.9)"></path><path class="cls-3" d="M932.1,164h11.2v49.3a7.81,7.81,0,0,1-7.8,7.8h-6.6v-54A3.12,3.12,0,0,1,932,164Z" transform="translate(-51.68 -75.9)"></path><circle class="cls-3" cx="884.52" cy="165.9" r="9.6"></circle><path class="cls-3" d="M675.7,251.4a63.58,63.58,0,0,1-18.7-2.7q-8.85-2.7-13.8-6.9l1.2-2a7.21,7.21,0,0,1,9.5-2.8,37.17,37.17,0,0,0,6.7,2.7,50.14,50.14,0,0,0,16,2.6c5.6,0,13.1-1.2,16.4-3.5a10.78,10.78,0,0,0,5-9.2c0-3.8-.9-5.1-2.8-6.7a18.38,18.38,0,0,0-7.4-3.7,79.29,79.29,0,0,0-10.2-2.1c-3.8-.6-7.5-1.3-11.2-2.1a38.82,38.82,0,0,1-10.1-3.5,19.66,19.66,0,0,1-7.4-6.3c-1.9-2.7-2.8-6.2-2.8-10.6a18.88,18.88,0,0,1,3.6-11.4,24.05,24.05,0,0,1,10.7-7.9,46.34,46.34,0,0,1,17.3-2.9,54.52,54.52,0,0,1,15.5,2,44.87,44.87,0,0,1,12.8,5.2l-1.3,2.3a7.13,7.13,0,0,1-8.9,3.1,39.89,39.89,0,0,0-5.9-2.1,51.08,51.08,0,0,0-12.2-1.6q-10.8,0-15.9,3.6c-3.4,2.4-5.1,5.5-5.1,9.2s.9,5.3,2.8,6.9a19,19,0,0,0,7.5,3.9,85.78,85.78,0,0,0,10.2,2.3q5.55.9,11.1,2.1a50.88,50.88,0,0,1,10.2,3.4,18,18,0,0,1,7.5,6.1c1.9,2.6,2.8,6,2.8,10.3a18.74,18.74,0,0,1-3.9,11.7,24.45,24.45,0,0,1-11.3,7.7,52.29,52.29,0,0,1-17.9,2.7Z" transform="translate(-51.68 -75.9)"></path><path class="cls-3" d="M596.1,251.8a43.58,43.58,0,0,1-21.1-5,37.18,37.18,0,0,1-14.2-13.9,39.75,39.75,0,0,1-5.1-20.3,40.29,40.29,0,0,1,4.9-20.2,35.8,35.8,0,0,1,13.5-13.8,37.92,37.92,0,0,1,19.2-5,37.33,37.33,0,0,1,19.2,4.9,34.81,34.81,0,0,1,13.2,13.7,42.11,42.11,0,0,1,4.8,20.4v1.5h0a1.77,1.77,0,0,1-1.8,1.7H563.6v-7.7h61.3l-4.1,3.1a29.76,29.76,0,0,0-3.6-14.8,27.18,27.18,0,0,0-9.7-10.2,27.55,27.55,0,0,0-14.2-3.7,26.86,26.86,0,0,0-14.2,3.7,24.72,24.72,0,0,0-9.8,10.2,32,32,0,0,0-3.5,15.1v1.6a29.88,29.88,0,0,0,3.9,15.4,27.71,27.71,0,0,0,10.8,10.4,32.75,32.75,0,0,0,15.9,3.7,29.43,29.43,0,0,0,13.1-2.5,27.34,27.34,0,0,0,6.6-3.9,6,6,0,0,1,7.8.8l1.9,2.2a33.6,33.6,0,0,1-12.8,9.4,43.87,43.87,0,0,1-16.9,3.2Z" transform="translate(-51.68 -75.9)"></path></svg>