<svg xmlns="http://www.w3.org/2000/svg" width="46" height="46" fill="none"><path d="M12.938 26.594h2.156a.719.719 0 100-1.438h-2.156a.719.719 0 100 1.438zm0 2.875h4.312a.719.719 0 100-1.438h-4.313a.719.719 0 100 1.438zm4.312-2.875h1.438a.719.719 0 100-1.438H17.25a.719.719 0 100 1.438zm-4.312 5.75h5.03a.719.719 0 100-1.438h-5.03a.719.719 0 100 1.438zM23 6.469H12.937a.718.718 0 100 1.437H23a.719.719 0 100-1.437zm-4.312 2.875h-5.75a.718.718 0 100 1.437h5.75a.718.718 0 100-1.437z" fill="#333"></path><path d="M33.822 26.169a6.48 6.48 0 00-9.09-1.054 6.479 6.479 0 00-1.055 9.09 6.463 6.463 0 005.08 2.45 6.444 6.444 0 004.011-1.395 6.479 6.479 0 001.054-9.091z" fill="#885efe"></path><path d="M41.167 41.34l-3.124-3.943a.717.717 0 00-1.009-.118l-.995-1.255c2.66-3.323 2.789-8.163.036-11.637a9.28 9.28 0 00-4.45-3.083V2.156A2.159 2.159 0 0029.47 0h-23a2.159 2.159 0 00-2.157 2.156v34.5a2.16 2.16 0 002.157 2.157h18.69a9.373 9.373 0 003.608.72 9.234 9.234 0 003.874-.851l1.01 1.275a.72.72 0 00-.118 1.01l3.124 3.943a2.872 2.872 0 002.257 1.089c.625 0 1.255-.203 1.782-.62a2.86 2.86 0 001.07-1.923 2.859 2.859 0 00-.6-2.116zM6.47 37.375a.72.72 0 01-.719-.719v-34.5a.72.72 0 01.719-.719h23a.72.72 0 01.718.72V20.97a9.334 9.334 0 00-1.437-.115V3.594a.719.719 0 00-.719-.719H7.906a.719.719 0 00-.718.719v31.625c0 .397.322.718.718.718H21.39c.013.017.024.036.038.052.407.514.863.976 1.355 1.386H6.47zm17.25-25.156h-2.875a.718.718 0 00-.719.719v2.874h-1.438v-.718a.719.719 0 00-.718-.719h-2.875a.719.719 0 00-.719.719v2.156H12.22a.719.719 0 00-.719.719v3.593c0 .398.322.72.719.72h11.5c.03 0 .056-.014.087-.018a9.282 9.282 0 00-4.337 6.848 9.272 9.272 0 00.992 5.388H8.625V4.312h18.688v16.652a9.265 9.265 0 00-3.034 1.03.706.706 0 00.159-.431v-8.625a.718.718 0 00-.72-.72zM23 13.656v7.188h-1.438v-7.188H23zm-4.313 7.188V17.25h1.438v3.594h-1.438zm-1.437 0h-1.438v-5.032h1.438v5.032zm-4.313 0v-2.157h1.438v2.157h-1.438zM27.84 38.042a7.853 7.853 0 01-5.286-2.945 7.854 7.854 0 01-1.656-5.82 7.853 7.853 0 012.945-5.287 7.865 7.865 0 014.9-1.705 7.898 7.898 0 016.206 2.993c2.707 3.418 2.129 8.401-1.288 11.107a7.865 7.865 0 01-5.82 1.657zm6.713-.529c.172-.137.33-.285.491-.431l.864 1.09-1.127.892-.864-1.09c.217-.144.429-.298.636-.461z" fill="#333"></path></svg>